<svg xmlns="http://www.w3.org/2000/svg" viewBox="0 0 118.76 116.87"><defs><style>.cls-1,.cls-5{fill:#51275c;}.cls-2{fill:#6d377e;}.cls-3{fill:#8a66a9;}.cls-4{font-size:48px;fill:#fff;}.cls-4,.cls-5{font-family:Consolas;}.cls-5{font-size:24px;}</style></defs><g id="Capa_3" data-name="Capa 3"><path class="cls-1" d="M27.64,54.21a7,7,0,0,0-3.32,4.08c-.67,3,1.79,5.88,3.75,8C40.52,80,50.09,85.4,56.92,90.86a14.74,14.74,0,0,0,4,1.79c3.56.67,6.07-.92,8.89-2.54,7.66-4.42,9-6.5,16.47-13.48C88.18,74.89,91.27,72,98.14,66c1.35-1.18,3.08-2.68,3.43-5,.51-3.41-2.19-6.37-3.21-7.39" transform="translate(-4.29 -2.67)"/><path class="cls-2" d="M27.64,42.84a6.93,6.93,0,0,0-3.32,4.07c-.67,3,1.79,5.89,3.75,8C40.52,68.61,50.09,74,56.92,79.48a14.45,14.45,0,0,0,4,1.79c3.56.68,6.07-.91,8.89-2.54,7.66-4.41,9-6.49,16.47-13.47,1.85-1.74,4.94-4.6,11.81-10.63,1.35-1.18,3.08-2.68,3.43-5,.51-3.41-2.19-6.37-3.21-7.39" transform="translate(-4.29 -2.67)"/><path class="cls-3" d="M56.68,5.25c-12.47,10-9.16,7.56-16.18,13-1.29,1-11.8,8.56-15.21,13.4A6.73,6.73,0,0,0,23.79,35c-.31,3.61,3.46,6.42,6.21,8.89C45.32,57.64,53.48,63.27,55,64.82a10.68,10.68,0,0,0,5.68,3.54c3.6.68,6.87-1.12,9-2.68C83.25,55.71,84.51,54,93.21,47c2-1.58,5.83-3.72,7.61-8.25a12.12,12.12,0,0,0,1-5.15c-.43-6.07-7.43-7-18.33-16.82-1-.87-5.21-4.37-13.71-11.36a10.54,10.54,0,0,0-6.11-2.78A10.49,10.49,0,0,0,56.68,5.25Z" transform="translate(-4.29 -2.67)"/></g><g id="Capa_2" data-name="Capa 2"><text class="cls-4" transform="matrix(0.77, -0.77, 0.71, 0.71, 59.46, 52.73)">B</text><text class="cls-5" transform="translate(0 109.62)">Bootstrap</text></g></svg>