<svg xmlns="http://www.w3.org/2000/svg" viewBox="0 0 159.07 69.25"><defs><style>.cls-1{fill:#5dc6f2;}.cls-2{fill:#ffea00;}.cls-3{fill:#b379b2;}.cls-4{fill:none;stroke:#1d1d1b;stroke-miterlimit:10;stroke-width:0.5px;}</style></defs><g id="Capa_3" data-name="Capa 3"><rect class="cls-1" x="0.25" y="0.25" width="21.18" height="30.09"/><rect class="cls-2" x="0.25" y="30.34" width="21.18" height="19.45"/><rect class="cls-3" x="0.25" y="49.8" width="21.18" height="19.45"/><rect class="cls-1" x="42.31" y="-1.59" width="32.56" height="47.32" transform="translate(31.64 75.12) rotate(-90)"/><rect class="cls-2" x="30.59" y="42.71" width="32.56" height="23.45" transform="translate(96.41 2.03) rotate(90)"/><rect class="cls-3" x="53.91" y="42.83" width="32.56" height="23.2" transform="translate(119.74 -21.3) rotate(90)"/><rect class="cls-1" x="117.32" y="-17.44" width="23.11" height="69.68" transform="translate(106.57 140.74) rotate(-90)"/><rect class="cls-2" x="100.05" y="23.11" width="23.11" height="34.53" transform="translate(147.09 -76.77) rotate(90)"/><rect class="cls-3" x="134.4" y="23.29" width="23.11" height="34.17" transform="translate(181.44 -111.11) rotate(90)"/></g><g id="Capa_4" data-name="Capa 4"><rect class="cls-4" x="0.25" y="0.25" width="21.18" height="45.94"/><rect class="cls-4" x="30.04" y="0.25" width="46.78" height="45.94"/><rect class="cls-4" x="89.14" y="0.25" width="69.68" height="45.94"/></g></svg>