<svg xmlns="http://www.w3.org/2000/svg" viewBox="0 0 159.07 53.18"><defs><style>.cls-1{fill:#5dc6f2;}.cls-2{fill:#ffea00;}.cls-3{fill:#b379b2;}.cls-4{fill:none;stroke:#1d1d1b;stroke-miterlimit:10;stroke-width:0.5px;}</style></defs><g id="Capa_3" data-name="Capa 3"><rect class="cls-1" x="0.25" y="0.25" width="21.18" height="30.09"/><rect class="cls-2" x="0.25" y="30.34" width="21.18" height="11.42"/><rect class="cls-3" x="0.25" y="41.76" width="21.18" height="11.42"/><rect class="cls-1" x="45.67" y="3.55" width="23.11" height="27.58" transform="translate(34.99 69.02) rotate(-90)"/><rect class="cls-2" x="38.83" y="33.48" width="23.11" height="13.67" transform="translate(85.8 -15.61) rotate(90)"/><rect class="cls-3" x="52.43" y="33.55" width="23.11" height="13.52" transform="translate(99.4 -29.21) rotate(90)"/><rect class="cls-1" x="117.32" y="3.62" width="23.11" height="27.58" transform="translate(106.57 140.74) rotate(-90)"/><rect class="cls-2" x="110.49" y="33.54" width="23.11" height="13.67" transform="translate(157.52 -87.2) rotate(90)"/><rect class="cls-3" x="124.08" y="33.62" width="23.11" height="13.52" transform="translate(171.12 -100.79) rotate(90)"/></g><g id="Capa_4" data-name="Capa 4"><rect class="cls-4" x="0.25" y="0.25" width="21.18" height="45.94"/><rect class="cls-4" x="30.04" y="0.25" width="46.78" height="45.94"/><rect class="cls-4" x="89.14" y="0.25" width="69.68" height="45.94"/></g></svg>