<svg xmlns="http://www.w3.org/2000/svg" viewBox="0 0 158.47 96.49"><defs><style>.cls-1,.cls-8{fill:none;stroke-miterlimit:10;}.cls-1{stroke:#1d1d1b;}.cls-2{fill:#73cbf1;}.cls-3{fill:#6bc9f1;}.cls-4{fill:#70be92;}.cls-5{fill:#a9539b;}.cls-6{fill:#e94665;}.cls-7{font-size:12px;fill:#1d1d1b;font-family:MyriadPro-Regular, Myriad Pro;}.cls-8{stroke:#fe0;}</style></defs><g id="Capa_1" data-name="Capa 1"><rect class="cls-1" x="0.5" y="0.5" width="157.47" height="95.49"/></g><g id="Capa_2" data-name="Capa 2"><rect class="cls-2" x="61.42" y="3.1" width="20.76" height="36.65"/><rect class="cls-3" x="6.06" y="3.1" width="13.91" height="36.65"/><rect class="cls-4" x="19.97" y="3.1" width="13.91" height="36.65"/><rect class="cls-5" x="33.88" y="3.12" width="13.91" height="36.64"/><rect class="cls-6" x="47.78" y="3.12" width="13.91" height="36.65"/><text class="cls-7" transform="translate(10.43 13.38)">1</text><text class="cls-7" transform="translate(24.03 13.38)">2</text><text class="cls-7" transform="translate(37.93 13.38)">3</text><text class="cls-7" transform="translate(51.44 13.38)">4</text><rect class="cls-8" x="6.06" y="3.1" width="57.03" height="36.67"/><rect class="cls-2" x="61.42" y="46.87" width="20.76" height="36.65"/><rect class="cls-3" x="6.06" y="46.87" width="13.91" height="36.65"/><rect class="cls-4" x="19.97" y="46.87" width="13.91" height="36.65"/><rect class="cls-5" x="33.88" y="46.89" width="13.91" height="36.64"/><rect class="cls-6" x="47.78" y="46.89" width="13.91" height="36.65"/><rect class="cls-8" x="6.06" y="46.86" width="76.13" height="36.67"/></g></svg>