<svg xmlns="http://www.w3.org/2000/svg" viewBox="0 0 159.07 58.75"><defs><style>.cls-1{fill:#5dc6f2;}.cls-2{fill:#ffea00;}.cls-3{fill:#b379b2;}.cls-4{fill:none;stroke:#1d1d1b;stroke-miterlimit:10;stroke-width:0.5px;}</style></defs><g id="Capa_3" data-name="Capa 3"><rect class="cls-1" x="0.25" y="0.25" width="21.18" height="8.04"/><rect class="cls-2" x="0.25" y="8.29" width="21.18" height="25.23"/><rect class="cls-3" x="0.25" y="33.52" width="21.18" height="25.23"/><rect class="cls-1" x="54.58" y="-13.85" width="8.04" height="47.32" transform="translate(43.9 62.86) rotate(-90)"/><rect class="cls-2" x="47.03" y="1.73" width="22.61" height="46.78" transform="translate(78.56 -38.74) rotate(90)"/><rect class="cls-3" x="44.97" y="26.39" width="26.79" height="46.86" transform="translate(103.29 -14.08) rotate(90)"/><rect class="cls-1" x="127.62" y="-27.74" width="2.5" height="69.68" transform="translate(116.88 130.44) rotate(-90)"/><rect class="cls-2" x="117.14" y="-14.44" width="23.11" height="68.7" transform="translate(143.71 -114.32) rotate(90)"/><rect class="cls-3" x="117.14" y="6.03" width="23.11" height="68.7" transform="translate(164.18 -93.85) rotate(90)"/></g><g id="Capa_4" data-name="Capa 4"><rect class="cls-4" x="0.25" y="0.25" width="21.18" height="45.94"/><rect class="cls-4" x="30.04" y="0.25" width="46.78" height="45.94"/><rect class="cls-4" x="89.14" y="0.25" width="69.68" height="45.94"/></g></svg>