<svg xmlns="http://www.w3.org/2000/svg" viewBox="0 0 149.31 54.17"><defs><style>.cls-1{fill:#1d1d1b;}.cls-2{fill:#fff;}.cls-3{fill:#bbbaba;}.cls-4{fill:#b376b0;}.cls-5{fill:#e2bedc;}.cls-6{fill:#826f7f;}.cls-7{fill:none;stroke:#826f7f;stroke-miterlimit:10;stroke-width:3px;}</style></defs><g id="Capa_1" data-name="Capa 1"><rect class="cls-1" y="10.59" width="16.67" height="32.29"/><rect class="cls-1" x="39.24" y="7.47" width="38.37" height="31.94"/><rect class="cls-1" x="101.74" width="47.57" height="44.62"/><rect class="cls-1" x="120.14" y="46.01" width="11.81" height="3.3"/><rect class="cls-1" x="112.67" y="51.04" width="27.08" height="3.13"/><polygon class="cls-1" points="39.24 41.15 37.33 46.01 79.17 46.01 77.6 41.15 39.24 41.15"/></g><g id="Capa_3" data-name="Capa 3"><rect class="cls-2" x="1.39" y="11.98" width="13.54" height="25.43"/><rect class="cls-2" x="41.32" y="8.68" width="34.55" height="28.73"/><rect class="cls-2" x="103.47" y="1.91" width="43.92" height="38.19"/><circle class="cls-2" cx="7.99" cy="40.1" r="1.56"/><circle class="cls-2" cx="125.91" cy="42.1" r="1.43"/><rect class="cls-2" x="52.6" y="42.88" width="13.02" height="2.08"/></g><g id="Capa_4" data-name="Capa 4"><rect class="cls-3" x="2.6" y="13.37" width="11.63" height="3.82"/><rect class="cls-3" x="43.23" y="10.76" width="11.63" height="2.6"/><rect class="cls-3" x="108.68" y="3.99" width="13.54" height="3.3"/><rect class="cls-4" x="2.6" y="18.75" width="11.63" height="9.38"/><rect class="cls-5" x="2.91" y="28.86" width="10.94" height="6.42"/><rect class="cls-4" x="43.23" y="15.97" width="30.39" height="10.94"/><rect class="cls-5" x="43.53" y="27.82" width="13.72" height="7.47"/><rect class="cls-5" x="60.37" y="27.82" width="14.14" height="8.33"/><rect class="cls-4" x="108.68" y="9.2" width="34.2" height="12.24"/><rect class="cls-5" x="120.87" y="22.09" width="10.42" height="7.99"/><rect class="cls-5" x="108.98" y="22.09" width="10.42" height="7.99"/><rect class="cls-5" x="132.47" y="22.4" width="10.42" height="7.99"/><rect class="cls-6" x="108.16" y="31.56" width="11.24" height="1.43"/><rect class="cls-6" x="120.16" y="31.55" width="11.24" height="1.43"/><rect class="cls-6" x="132.05" y="31.27" width="11.24" height="1.43"/><rect class="cls-6" x="107.75" y="34.33" width="11.24" height="1.43"/><rect class="cls-6" x="119.75" y="34.32" width="11.24" height="1.43"/><rect class="cls-6" x="131.64" y="34.05" width="11.24" height="1.43"/><rect class="cls-6" x="108.21" y="36.84" width="11.24" height="1.43"/><rect class="cls-6" x="120.22" y="36.83" width="11.24" height="1.43"/><rect class="cls-6" x="132.11" y="36.56" width="11.24" height="1.43"/><polygon class="cls-6" points="89.53 17.75 96.36 26.09 89.53 33.5 89.53 25.62 89.53 17.75"/><line class="cls-7" x1="81.66" y1="26.09" x2="89.53" y2="26.09"/><polygon class="cls-6" points="29.5 17.63 36.34 25.97 29.5 33.38 29.5 25.5 29.5 17.63"/><line class="cls-7" x1="21.63" y1="25.97" x2="29.5" y2="25.97"/></g></svg>