<svg xmlns="http://www.w3.org/2000/svg" viewBox="0 0 158.47 96.49"><defs><style>.cls-1,.cls-8{fill:none;stroke-miterlimit:10;}.cls-1{stroke:#1d1d1b;}.cls-2{fill:#73cbf1;}.cls-3{fill:#6bc9f1;}.cls-4{fill:#70be92;}.cls-5{fill:#a9539b;}.cls-6{fill:#e94665;}.cls-7{font-size:12px;}.cls-7,.cls-9{fill:#1d1d1b;font-family:MyriadPro-Regular, Myriad Pro;}.cls-8{stroke:#fe0;}.cls-9{font-size:10.39px;}</style></defs><g id="Capa_1" data-name="Capa 1"><rect class="cls-1" x="0.5" y="0.5" width="157.47" height="95.49"/></g><g id="Capa_2" data-name="Capa 2"><rect class="cls-2" x="61.42" y="3.1" width="20.76" height="36.65"/><rect class="cls-3" x="6.06" y="3.1" width="13.91" height="36.65"/><rect class="cls-4" x="19.97" y="3.1" width="13.91" height="36.65"/><rect class="cls-5" x="33.88" y="3.12" width="13.91" height="36.64"/><rect class="cls-6" x="47.78" y="3.12" width="13.91" height="36.65"/><text class="cls-7" transform="translate(10.43 13.38)">1</text><text class="cls-7" transform="translate(24.03 13.38)">2</text><text class="cls-7" transform="translate(37.93 13.38)">3</text><text class="cls-7" transform="translate(51.44 13.38)">4</text><rect class="cls-8" x="6.06" y="3.1" width="57.03" height="36.67"/><rect class="cls-2" x="42.07" y="47" width="20.76" height="36.65"/><rect class="cls-3" x="6.06" y="46.87" width="9" height="36.65"/><rect class="cls-4" x="15.06" y="46.87" width="9" height="36.65"/><rect class="cls-5" x="24.06" y="46.89" width="9" height="36.64"/><rect class="cls-6" x="33.06" y="46.89" width="9" height="36.65"/><rect class="cls-8" x="6.06" y="46.86" width="57.03" height="36.67"/><text class="cls-9" transform="translate(8.32 67.91) scale(0.94 1)">1</text><text class="cls-9" transform="translate(17.42 67.91) scale(0.94 1)">2</text><text class="cls-9" transform="translate(26.77 67.91) scale(0.94 1)">3</text><text class="cls-9" transform="translate(34.8 67.91) scale(0.94 1)">4</text></g></svg>