<svg id="Capa_6" data-name="Capa 6" xmlns="http://www.w3.org/2000/svg" viewBox="0 0 67.54 70.47"><defs><style>.cls-1{fill:#949494;}.cls-2{font-size:18px;fill:#1d1d1b;font-family:FranklinGothic-Medium, Franklin Gothic Medium;font-weight:500;}.cls-3{letter-spacing:-0.01em;}.cls-4{letter-spacing:0em;}.cls-5{letter-spacing:-0.01em;}.cls-6{letter-spacing:-0.02em;}.cls-7{letter-spacing:0em;}</style></defs><path class="cls-1" d="M24.27,41V46a1.57,1.57,0,0,0,.92,1.53,53.57,53.57,0,0,0,5.39,2.09l.48-3.14.44,3.38,4.06.2.23-3.94.69,3.94h3.34l.28-4.56.68,4.24s6.59-1.57,6.87-3.3a43.08,43.08,0,0,0,0-6.15Z" transform="translate(-2.41 -1.21)"/><path class="cls-1" d="M35.79,1.21c-13,0-23.47,9.41-23.47,21s10.51,21,23.47,21,23.46-9.4,23.46-21S48.74,1.21,35.79,1.21ZM25.21,35.67c-5.05,0-9.82-6.66-9.82-11.57a9.37,9.37,0,0,1,9.28-9.16c5,0,9.68,7,9.68,11.85A9,9,0,0,1,25.21,35.67Zm12.88,4.54c-.38.25-1.14-.08-1.33-.16-.51-.22-.56-.44-.88-.44s-.56.46-1.17.68a1.36,1.36,0,0,1-1.24,0c-.62-.52,0-2.5,1.08-3.77.42-.49,1.05-1.23,1.77-1.13s1.09.95,1.45,1.73C38.23,38.11,38.68,39.82,38.09,40.21ZM47,35.67a9,9,0,0,1-9.14-8.88c0-4.9,4.64-11.85,9.69-11.85a9.38,9.38,0,0,1,9.28,9.16C56.78,29,52,35.67,47,35.67Z" transform="translate(-2.41 -1.21)"/><path class="cls-1" d="M22.3,15.79c-.32-.33-4.54,1.71-5.87,5.66-1.65,4.91,1.67,11.21,6,12.82a10.41,10.41,0,0,0,5.38.28,9.44,9.44,0,0,1-2.53-.24,9.2,9.2,0,0,1-5.1-4.26,11.4,11.4,0,0,1-1.45-7.76C19.55,18.23,22.59,16.08,22.3,15.79Z" transform="translate(-2.41 -1.21)"/><path class="cls-1" d="M49.79,15.79c.33-.33,4.54,1.71,5.87,5.66,1.65,4.91-1.67,11.21-6,12.82a10.41,10.41,0,0,1-5.38.28,9.44,9.44,0,0,0,2.53-.24,9.2,9.2,0,0,0,5.1-4.26,11.34,11.34,0,0,0,1.45-7.76C52.54,18.23,49.5,16.08,49.79,15.79Z" transform="translate(-2.41 -1.21)"/><text class="cls-2" transform="translate(0 64.95)">S<tspan class="cls-3" x="10.28" y="0">k</tspan><tspan class="cls-4" x="19.63" y="0">el</tspan><tspan class="cls-5" x="33.47" y="0">e</tspan><tspan class="cls-6" x="42.8" y="0">t</tspan><tspan class="cls-7" x="48.28" y="0">on</tspan></text></svg>